<svg xmlns="http://www.w3.org/2000/svg" xmlns:xlink="http://www.w3.org/1999/xlink" width="500" zoomAndPan="magnify" viewBox="0 0 375 168.749997" height="225" preserveAspectRatio="xMidYMid meet" version="1.0"><defs><g/><clipPath id="f6f6ddcc65"><path d="M 6 20 L 129 20 L 129 159 L 6 159 Z M 6 20 " clip-rule="nonzero"/></clipPath><clipPath id="025ae835ed"><path d="M 37.8125 0 L 158.453125 43.246094 L 109.3125 180.339844 L -11.332031 137.09375 Z M 37.8125 0 " clip-rule="nonzero"/></clipPath><clipPath id="de06a0972a"><path d="M 37.8125 0 L 158.453125 43.246094 L 109.3125 180.339844 L -11.332031 137.09375 Z M 37.8125 0 " clip-rule="nonzero"/></clipPath><clipPath id="c436b9a253"><path d="M 37.8125 0 L 158.453125 43.246094 L 109.3125 180.339844 L -11.332031 137.09375 Z M 37.8125 0 " clip-rule="nonzero"/></clipPath></defs><g clip-path="url(#f6f6ddcc65)"><g clip-path="url(#025ae835ed)"><g clip-path="url(#de06a0972a)"><g clip-path="url(#c436b9a253)"><path fill="#000000" d="M 128.769531 108.203125 C 128.769531 108.203125 115.808594 110.078125 104.984375 120.472656 L 115.097656 122.789062 C 101.039062 137.3125 89.125 139.339844 80.949219 136.410156 C 72.09375 133.234375 67.609375 124.230469 69.492188 118.980469 L 86.046875 67.535156 L 95.695312 70.992188 C 96.039062 73.527344 97.746094 75.800781 100.328125 76.726562 C 104.015625 78.050781 108.085938 76.125 109.410156 72.433594 C 110.734375 68.742188 108.8125 64.671875 105.121094 63.347656 C 102.539062 62.421875 99.785156 63.078125 97.902344 64.832031 L 88.054688 61.304688 L 90.382812 54.085938 C 98.003906 55.023438 105.558594 50.613281 108.261719 43.078125 C 111.382812 34.371094 106.839844 24.746094 98.132812 21.625 C 89.429688 18.503906 79.804688 23.050781 76.683594 31.761719 C 73.984375 39.292969 77.015625 47.5 83.519531 51.605469 L 80.730469 58.660156 L 70.882812 55.128906 C 70.539062 52.597656 68.835938 50.320312 66.253906 49.394531 C 62.5625 48.074219 58.492188 49.996094 57.167969 53.6875 C 55.84375 57.378906 57.765625 61.453125 61.457031 62.773438 C 64.039062 63.699219 66.796875 63.042969 68.675781 61.289062 L 78.308594 64.742188 L 58.402344 115.007812 C 56.523438 120.253906 47.335938 124.359375 38.480469 121.1875 C 30.308594 118.257812 22.410156 109.128906 20.761719 88.976562 L 30.046875 93.613281 C 28.285156 78.722656 19.457031 69.019531 19.457031 69.019531 C 19.457031 69.019531 9.894531 77.980469 6.9375 92.691406 L 16.757812 88.738281 C 13.332031 102.363281 13.894531 118.296875 34.027344 137.414062 C 42.652344 145.609375 46.617188 148.410156 48.992188 158.71875 C 57.390625 152.273438 62.230469 152.625 74.078125 151.773438 C 101.773438 149.796875 112.339844 137.832031 118.339844 125.148438 L 123.414062 134.441406 C 130.476562 121.203125 128.769531 108.203125 128.769531 108.203125 Z M 83.453125 34.1875 C 85.238281 29.203125 90.722656 26.609375 95.707031 28.394531 C 100.671875 30.175781 103.277344 35.667969 101.492188 40.652344 C 99.710938 45.621094 94.21875 48.230469 89.238281 46.441406 C 84.273438 44.664062 81.664062 39.167969 83.453125 34.1875 Z M 83.453125 34.1875 " fill-opacity="1" fill-rule="nonzero"/></g></g></g></g><g fill="#000000" fill-opacity="1"><g transform="translate(82.931915, 105.107915)"><g><path d="M 7.410156 0 L 7.410156 -10.660156 L 13.875 -10.660156 C 18.875 -10.660156 22.335938 -13.667969 22.335938 -18.804688 C 22.335938 -24.328125 18.875 -26.667969 13.875 -26.667969 L 2.375 -26.667969 L 2.375 0 Z M 7.410156 -22.160156 L 13.175781 -22.160156 C 15.832031 -22.160156 17.335938 -20.902344 17.335938 -18.628906 C 17.335938 -16.289062 15.867188 -15.066406 13.175781 -15.066406 L 7.410156 -15.066406 Z M 7.410156 -22.160156 "/></g></g></g><g fill="#000000" fill-opacity="1"><g transform="translate(106.210338, 105.107915)"><g><path d="M 18.699219 0 L 18.699219 -4.507812 L 7.410156 -4.507812 L 7.410156 -26.667969 L 2.375 -26.667969 L 2.375 0 Z M 18.699219 0 "/></g></g></g><g fill="#000000" fill-opacity="1"><g transform="translate(125.294451, 105.107915)"><g><path d="M 5.523438 0 L 7.304688 -5.488281 L 17.476562 -5.488281 L 19.292969 0 L 24.570312 0 L 15.167969 -26.667969 L 9.648438 -26.667969 L 0.246094 0 Z M 12.40625 -21.179688 L 16.078125 -9.890625 L 8.738281 -9.890625 Z M 12.40625 -21.179688 "/></g></g></g><g fill="#000000" fill-opacity="1"><g transform="translate(150.110785, 105.107915)"><g><path d="M 7.410156 0 L 7.410156 -19.117188 L 18.316406 0 L 24.011719 0 L 24.011719 -26.667969 L 18.980469 -26.667969 L 18.980469 -7.585938 L 8.039062 -26.667969 L 2.375 -26.667969 L 2.375 0 Z M 7.410156 0 "/></g></g></g><g fill="#000000" fill-opacity="1"><g transform="translate(176.499984, 105.107915)"><g><path d="M 7.410156 0 L 7.410156 -11.113281 L 18.839844 -11.113281 L 18.839844 0 L 23.871094 0 L 23.871094 -26.667969 L 18.839844 -26.667969 L 18.839844 -15.625 L 7.410156 -15.625 L 7.410156 -26.667969 L 2.375 -26.667969 L 2.375 0 Z M 7.410156 0 "/></g></g></g><g fill="#000000" fill-opacity="1"><g transform="translate(202.784327, 105.107915)"><g><path d="M 5.523438 0 L 7.304688 -5.488281 L 17.476562 -5.488281 L 19.292969 0 L 24.570312 0 L 15.167969 -26.667969 L 9.648438 -26.667969 L 0.246094 0 Z M 12.40625 -21.179688 L 16.078125 -9.890625 L 8.738281 -9.890625 Z M 12.40625 -21.179688 "/></g></g></g><g fill="#000000" fill-opacity="1"><g transform="translate(227.600661, 105.107915)"><g><path d="M 18.140625 -11.570312 C 20.726562 -12.792969 22.335938 -15.308594 22.335938 -18.804688 C 22.335938 -24.328125 18.875 -26.667969 13.875 -26.667969 L 2.375 -26.667969 L 2.375 0 L 7.410156 0 L 7.410156 -10.660156 L 13.351562 -10.660156 L 17.582031 0 L 22.929688 0 Z M 13.175781 -22.160156 C 15.832031 -22.160156 17.335938 -20.902344 17.335938 -18.628906 C 17.335938 -16.289062 15.867188 -15.066406 13.175781 -15.066406 L 7.410156 -15.066406 L 7.410156 -22.160156 Z M 13.175781 -22.160156 "/></g></g></g><g fill="#000000" fill-opacity="1"><g transform="translate(251.682994, 105.107915)"><g><path d="M 13.386719 0 C 14.890625 0 18.28125 -0.210938 20.621094 -2.097656 C 21.984375 -3.25 23 -5.207031 23 -7.757812 C 23 -11.183594 21.109375 -13.457031 17.6875 -14.015625 C 20.203125 -14.679688 21.636719 -16.953125 21.636719 -19.992188 C 21.636719 -21.878906 21.109375 -23.382812 19.992188 -24.5 C 18.558594 -25.933594 16.21875 -26.667969 12.933594 -26.667969 L 2.375 -26.667969 L 2.375 0 Z M 7.410156 -22.160156 L 11.8125 -22.160156 C 13.667969 -22.160156 14.855469 -21.878906 15.625 -21.214844 C 16.253906 -20.726562 16.566406 -19.957031 16.566406 -18.910156 C 16.566406 -16.742188 15.167969 -15.589844 12.617188 -15.589844 L 7.410156 -15.589844 Z M 7.410156 -11.5 L 13.316406 -11.5 C 15.414062 -11.5 17.929688 -11.253906 17.929688 -8.144531 C 17.929688 -6.886719 17.582031 -6.082031 16.953125 -5.558594 C 15.867188 -4.613281 14.121094 -4.507812 12.757812 -4.507812 L 7.410156 -4.507812 Z M 7.410156 -11.5 "/></g></g></g><g fill="#000000" fill-opacity="1"><g transform="translate(276.079916, 105.107915)"><g><path d="M 14.296875 0.488281 C 23.136719 0.488281 27.261719 -5.976562 27.261719 -13.351562 C 27.261719 -20.726562 23.136719 -27.15625 14.296875 -27.15625 C 5.488281 -27.15625 1.363281 -20.726562 1.363281 -13.351562 C 1.363281 -5.976562 5.488281 0.488281 14.296875 0.488281 Z M 14.296875 -4.019531 C 9.4375 -4.019531 6.605469 -7.792969 6.605469 -13.351562 C 6.605469 -18.875 9.4375 -22.613281 14.296875 -22.613281 C 19.222656 -22.613281 22.019531 -18.875 22.019531 -13.351562 C 22.019531 -7.792969 19.222656 -4.019531 14.296875 -4.019531 Z M 14.296875 -4.019531 "/></g></g></g><g fill="#000000" fill-opacity="1"><g transform="translate(304.741036, 105.107915)"><g><path d="M 12.863281 0.488281 C 20.480469 0.488281 23.628906 -3.636719 23.628906 -9.683594 L 23.628906 -26.667969 L 18.558594 -26.667969 L 18.558594 -9.683594 C 18.558594 -6.363281 17.160156 -4.019531 12.863281 -4.019531 C 8.5625 -4.019531 7.164062 -6.363281 7.164062 -9.683594 L 7.164062 -26.667969 L 2.097656 -26.667969 L 2.097656 -9.683594 C 2.097656 -3.636719 5.207031 0.488281 12.863281 0.488281 Z M 12.863281 0.488281 "/></g></g></g><g fill="#000000" fill-opacity="1"><g transform="translate(330.501091, 105.107915)"><g><path d="M 18.140625 -11.570312 C 20.726562 -12.792969 22.335938 -15.308594 22.335938 -18.804688 C 22.335938 -24.328125 18.875 -26.667969 13.875 -26.667969 L 2.375 -26.667969 L 2.375 0 L 7.410156 0 L 7.410156 -10.660156 L 13.351562 -10.660156 L 17.582031 0 L 22.929688 0 Z M 13.175781 -22.160156 C 15.832031 -22.160156 17.335938 -20.902344 17.335938 -18.628906 C 17.335938 -16.289062 15.867188 -15.066406 13.175781 -15.066406 L 7.410156 -15.066406 L 7.410156 -22.160156 Z M 13.175781 -22.160156 "/></g></g></g><g fill="#000000" fill-opacity="1"><g transform="translate(354.583436, 105.107915)"><g><path d="M 4.335938 0.382812 C 5.800781 0.382812 7.058594 -0.875 7.058594 -2.445312 C 7.058594 -3.914062 5.800781 -5.207031 4.335938 -5.207031 C 2.796875 -5.207031 1.46875 -3.949219 1.46875 -2.445312 C 1.46875 -0.875 2.761719 0.382812 4.335938 0.382812 Z M 4.335938 0.382812 "/></g></g></g></svg>