<svg xmlns="http://www.w3.org/2000/svg" xmlns:xlink="http://www.w3.org/1999/xlink" width="500" zoomAndPan="magnify" viewBox="0 0 375 374.999991" height="500" preserveAspectRatio="xMidYMid meet" version="1.0"><defs><g/><clipPath id="fe81f80865"><path d="M 312.476562 247.066406 L 362.523438 247.066406 L 362.523438 297.113281 L 312.476562 297.113281 Z M 312.476562 247.066406 " clip-rule="nonzero"/></clipPath><clipPath id="24da18f66e"><path d="M 337.5 247.066406 C 323.679688 247.066406 312.476562 258.269531 312.476562 272.089844 C 312.476562 285.910156 323.679688 297.113281 337.5 297.113281 C 351.320312 297.113281 362.523438 285.910156 362.523438 272.089844 C 362.523438 258.269531 351.320312 247.066406 337.5 247.066406 Z M 337.5 247.066406 " clip-rule="nonzero"/></clipPath></defs><g fill="#000000" fill-opacity="1"><g transform="translate(25.615992, 295.152318)"><g><path d="M 9.734375 -203.734375 L 59.28125 -203.734375 L 59.28125 -192.875 C 66.332031 -201.601562 76.078125 -205.96875 88.515625 -205.96875 C 104.285156 -205.96875 115.273438 -200.675781 121.484375 -190.09375 C 127.703125 -179.519531 130.8125 -164.863281 130.8125 -146.125 L 130.8125 -70.703125 C 130.8125 -54.742188 129.882812 -41.707031 128.03125 -31.59375 C 126.175781 -21.476562 122.09375 -13.3125 115.78125 -7.09375 C 109.476562 -0.875 99.921875 2.234375 87.109375 2.234375 C 74.867188 2.234375 65.59375 -1.203125 59.28125 -8.078125 L 59.28125 40.640625 L 9.734375 40.640625 Z M 70.96875 -35.625 C 75.425781 -35.625 78.300781 -37.664062 79.59375 -41.75 C 80.894531 -45.832031 81.546875 -51.769531 81.546875 -59.5625 L 81.546875 -146.125 C 81.546875 -153.175781 80.894531 -158.554688 79.59375 -162.265625 C 78.300781 -165.972656 75.335938 -167.828125 70.703125 -167.828125 C 63.085938 -167.828125 59.28125 -160.773438 59.28125 -146.671875 L 59.28125 -57.328125 C 59.28125 -50.460938 60.066406 -45.128906 61.640625 -41.328125 C 63.222656 -37.523438 66.332031 -35.625 70.96875 -35.625 Z M 70.96875 -35.625 "/></g></g></g><g fill="#000000" fill-opacity="1"><g transform="translate(149.457729, 295.152318)"><g><path d="M 9.734375 -240.46875 L 59.84375 -240.46875 L 59.84375 -183.703125 C 65.039062 -198.546875 74.96875 -205.96875 89.625 -205.96875 C 103.351562 -205.96875 113.742188 -201.601562 120.796875 -192.875 C 127.847656 -184.15625 131.375 -172.191406 131.375 -156.984375 L 131.375 0 L 82.65625 0 L 82.65625 -153.921875 C 82.65625 -158.367188 81.632812 -161.984375 79.59375 -164.765625 C 77.5625 -167.546875 74.597656 -168.9375 70.703125 -168.9375 C 67.359375 -168.9375 64.710938 -167.5 62.765625 -164.625 C 60.816406 -161.75 59.84375 -158.269531 59.84375 -154.1875 L 59.84375 0 L 9.734375 0 Z M 9.734375 -240.46875 "/></g></g></g><g clip-path="url(#fe81f80865)"><g clip-path="url(#24da18f66e)"><path fill="#000000" d="M 312.476562 247.066406 L 362.523438 247.066406 L 362.523438 297.113281 L 312.476562 297.113281 Z M 312.476562 247.066406 " fill-opacity="1" fill-rule="nonzero"/></g></g></svg>